<?xml version="1.0" standalone="no"?><!DOCTYPE svg PUBLIC "-//W3C//DTD SVG 1.1//EN" "http://www.w3.org/Graphics/SVG/1.1/DTD/svg11.dtd"><svg t="1580894698009" class="icon" viewBox="0 0 1024 1024" version="1.1" xmlns="http://www.w3.org/2000/svg" p-id="3906" xmlns:xlink="http://www.w3.org/1999/xlink" width="200" height="200"><defs><style type="text/css"></style></defs><path d="M513 137.8c-206.6 0-374.2 167.5-374.2 374.2 0 206.6 167.6 374.1 374.2 374.1S887.1 718.6 887.1 512c0-206.6-167.5-374.2-374.1-374.2z m0 689.3c-173.7 0-315.1-141.4-315.1-315.1 0-173.7 141.3-315.1 315.1-315.1 173.7 0 315.1 141.4 315.1 315.1 0 173.7-141.4 315.1-315.1 315.1z" fill="#666666" p-id="3907"></path><path d="M690.9 422.7c-7.6 0-15.1 2.9-20.9 8.6l-98.4 98.4-87.6-88c-0.9-1-2-1.8-3-2.7-1.4-2.8-3.2-5.4-5.5-7.7-5.8-5.8-13.4-8.6-20.9-8.6-7.5 0-15.1 2.9-20.9 8.6L314.2 550.9c-11.5 11.5-11.5 30.2 0 41.8 5.8 5.8 13.4 8.6 20.9 8.6 7.5 0 15.1-2.9 20.9-8.6l98-98.1 87.3 87.7c1.3 1.3 2.6 2.4 4 3.4 1.4 2.5 3.1 4.9 5.2 7.1 5.8 5.8 13.3 8.6 20.9 8.6 7.5 0 15.1-2.9 20.8-8.6l119.6-119.5c11.5-11.5 11.5-30.3 0-41.8-5.7-5.9-13.3-8.8-20.9-8.8z" fill="#666666" p-id="3908"></path></svg>